<?xml version="1.0" encoding="utf-8"?>
<!-- Generator: Adobe Illustrator 27.0.1, SVG Export Plug-In . SVG Version: 6.00 Build 0)  -->
<svg version="1.1" id="Layer_1" xmlns="http://www.w3.org/2000/svg" xmlns:xlink="http://www.w3.org/1999/xlink" x="0px" y="0px"
	 viewBox="0 0 24 13" style="enable-background:new 0 0 24 13;" xml:space="preserve">
<style type="text/css">
	.st0{fill:#FF6724;}
</style>
<path class="st0" d="M23.8,7.7c0,0-0.1,0-0.1,0c-0.1,0-0.1,0-0.2,0c-0.1,0-0.1,0.1-0.1,0.1c-0.1,0.1-0.1,0.3-0.2,0.4
	c-0.1,0.2-0.2,0.4-0.4,0.5c-0.1,0.2-0.3,0.3-0.4,0.4c0,0-0.1,0-0.1,0c0,0,0-0.1,0-0.1c0-0.4,0.1-0.8,0.1-1.1c0-0.2,0-0.3,0.1-0.5
	c0-0.2,0.1-0.5,0.1-0.7l0.2-1.8c0-0.1,0-0.4-0.1-0.5c-0.1-0.1-0.1-0.1-0.2-0.1c-0.1,0-0.2,0-0.3,0.1c-0.2,0.2-0.3,0.5-0.4,0.8
	c-0.1,0.6-0.2,1.2-0.5,1.8C21.2,7,21.1,7.2,21,7.2c0,0.1-0.1,0.1-0.2,0.2c-0.1,0-0.2,0.1-0.2,0.1c-0.1,0-0.2-0.1-0.2-0.2
	c0-0.1-0.1-0.2-0.1-0.3c0-0.5,0.1-1.1,0.2-1.6c0-0.1,0.1-0.3,0.1-0.4c0-0.2,0-0.4-0.1-0.5c-0.1-0.1-0.3-0.2-0.5-0.1
	c-0.2,0.1-0.3,0.2-0.4,0.4c-0.2,0.5-0.2,0.9-0.3,1.4c0,0.3-0.1,0.6-0.3,0.9c-0.2,0.3-0.4,0.5-0.6,0.7c-0.1,0.1-0.2,0.1-0.3,0.1
	c-0.1,0-0.2-0.1-0.3-0.2c-0.1-0.1-0.1-0.2-0.1-0.3c0-0.2,0-0.4,0-0.6c0-0.2,0-0.4,0-0.7c0.1-0.4,0.7-1.9,0.8-2.3
	c0.1-0.4,0.3-0.8,0.4-1.2C19,2.2,19,1.8,19,1.4c0-0.3-0.1-0.6-0.3-0.7c-0.2-0.1-0.4-0.1-0.6,0c-0.2,0.1-0.4,0.2-0.5,0.4
	c-0.1,0.2-0.2,0.4-0.2,0.6c-0.1,0.4-0.2,0.9-0.3,1.3c-0.1,0.4-0.1,0.8-0.2,1.3c-0.1,0.4-0.2,1.6-0.3,1.9c-0.1,0.3-0.2,0.5-0.3,0.8
	c-0.1,0.3-0.3,0.5-0.4,0.8c0,0.1-0.1,0.2-0.2,0.2c-0.1,0.1-0.2,0.1-0.3,0c-0.1,0-0.1-0.2-0.2-0.3c-0.1-0.4,0-0.9,0.1-1.3
	c0.1-0.4,0.4-2.4,0.5-2.9c0.1-0.5,0.2-1.1,0.3-1.6c0-0.4,0.1-0.9-0.2-1.2c-0.1-0.1-0.3-0.2-0.4-0.1c-0.2,0-0.3,0.2-0.4,0.3
	C15.2,1,15.1,1.1,15,1.3c-0.1,0.3-0.2,0.6-0.3,0.9l0,0.1c-0.1,0.4-0.1,0.8-0.2,1.2c0,0.2,0,0.4-0.1,0.6c0,0.1,0,0.2,0,0.3
	c0,0.1,0,0.2,0,0.2c0,0,0,0-0.1,0.1c-0.1,0.1-0.2,0.1-0.3,0.1c-0.6,0-1,0.3-1.4,0.8c-0.2,0.3-0.3,0.5-0.4,0.8c0,0,0,0.1-0.1,0.2
	c-0.1,0.1-0.1,0.3-0.2,0.5c-0.1,0.2-0.2,0.3-0.3,0.5c-0.1,0.1-0.2,0.3-0.4,0.4c-0.1,0.1-0.3,0.2-0.5,0.3c-0.2,0-0.4,0-0.5-0.2
	c-0.1-0.2-0.2-0.3-0.2-0.5c0-0.1,0-0.1,0-0.2c0.1-0.1,0.1-0.1,0.2-0.1c0.6-0.1,1.1-0.4,1.4-1c0.1-0.3,0.2-0.7,0.1-1
	c0-0.2-0.1-0.3-0.2-0.5c-0.1-0.1-0.2-0.3-0.4-0.3c-0.3-0.1-0.7-0.1-1,0c-0.6,0.2-1,0.7-1.1,1.6l0,0.1C9,6.5,8.8,7,8.5,7.4
	C8.4,7.5,8.2,7.5,8.1,7.5c0,0-0.1,0-0.1-0.1c-0.1-0.2,0-0.5,0.1-1c0-0.1,0.1-0.2,0.1-0.4c0-0.2,0-0.3-0.1-0.5
	C8.1,5.4,7.9,5.3,7.8,5.3C7.6,5.2,7.5,5.2,7.3,5.2h0c0,0-0.1,0-0.2,0C7,5.2,7,5.1,7,5.1C7,5,7,4.9,7,4.8c0,0,0,0,0-0.1
	c0-0.2,0-0.3-0.2-0.4c-0.1-0.1-0.3-0.1-0.5,0C6.2,4.4,6.1,4.5,6,4.6C5.9,4.8,5.9,5,5.9,5.1c0,0.1,0.1,0.3,0,0.5
	C5.9,5.9,5.7,6.1,5.6,6.3c0,0.1-0.1,0.1-0.1,0.2C5.3,6.8,5,7.1,4.7,7.3C4.4,7.7,3.9,7.9,3.5,8C2.8,8.2,2,7.9,1.6,7.3
	C1.4,6.9,1.3,6.4,1.3,6C1.2,5.1,1.3,4.3,1.7,3.5C2,2.7,2.5,2,3.4,1.9c0.4,0,0.8,0.1,0.9,0.4c0.1,0.2,0.1,0.5,0,0.8
	C4.2,3.3,4.1,3.5,4.1,3.8c0,0.3,0.1,0.5,0.4,0.6C4.7,4.5,5,4.3,5.1,4.1c0.1-0.2,0.2-0.5,0.2-0.7C5.5,2.8,5.7,2.3,6,1.8
	C6.2,1.5,6.3,1.3,6.3,1c0-0.2-0.2-0.4-0.4-0.4c-0.2-0.1-0.4,0-0.5,0.1C5.3,0.9,5.2,1.1,5,1.2C4.8,1.2,4.7,1.1,4.5,1
	c-0.6-0.3-1.3-0.3-2,0C1.9,1.2,1.4,1.7,1,2.3C0.5,3.1,0.1,4.1,0,5c0,0.3,0,0.7,0,1c0,0.5,0.1,0.9,0.2,1.2c0.1,0.4,0.3,0.8,0.5,1.1
	C1,8.7,1.4,9,1.7,9.1c0.4,0.1,0.8,0.2,1.2,0.2c0.4,0,0.8-0.1,1.2-0.3c0.4-0.2,0.7-0.4,1-0.7C5.4,8.1,5.7,7.8,6,7.5
	C6.1,7.2,6.3,7,6.4,6.8c0.1-0.1,0.1-0.3,0.2-0.4c0-0.1,0.1-0.2,0.2-0.3c0.1,0,0.2,0,0.2,0c0.1,0,0.1,0.1,0.1,0.1c0,0.1,0,0.2,0,0.3
	v0c0,0.1-0.1,0.2-0.1,0.3C6.9,7.3,6.8,7.7,6.9,8.1c0,0.2,0.1,0.4,0.2,0.5c0.1,0.1,0.3,0.2,0.5,0.3c0.2,0,0.5,0,0.7-0.1
	c0.1-0.1,0.3-0.2,0.4-0.3c0.1-0.1,0.1-0.1,0.2-0.2C9,8.3,9,8.2,9.1,8.2c0,0,0.1,0,0.1,0.1c0,0,0,0.1,0.1,0.1
	c0.2,0.5,0.8,0.8,1.3,0.8h0.1c0.3,0,0.6-0.1,0.8-0.2c0.3-0.1,0.5-0.3,0.7-0.6c0,0,0,0,0.1,0c0,0,0.1,0,0.1,0c0,0,0,0.1,0,0.1
	c0.1,0.3,0.5,0.6,0.8,0.7c0.4,0.1,0.7-0.1,1-0.4c0.1-0.1,0.1-0.1,0.2-0.2c0.1,0,0.1-0.1,0.2,0c0.1,0,0.1,0.2,0.2,0.3
	c0.1,0.2,0.4,0.4,0.6,0.4c0.3,0,0.6-0.1,0.8-0.3c0.2-0.2,0.4-0.4,0.5-0.6c0,0,0.1-0.1,0.1-0.1c0,0,0.1,0,0.1,0c0,0,0,0.1,0.1,0.1
	c0.2,0.4,0.6,0.7,1,0.6c0.4,0,0.8-0.2,1.1-0.5c0.1-0.1,0.2-0.2,0.3-0.2c0.1,0,0.2,0.1,0.3,0.2c0.1,0.1,0.1,0.2,0.2,0.3
	c0.2,0.1,0.4,0.2,0.5,0.1c0.2,0,0.3-0.2,0.5-0.3C21,8.5,21,8.4,21.1,8.3c0.1-0.1,0.1,0,0.1,0.1c0,0.1,0,0.2,0,0.4
	c0,0.2-0.1,0.5-0.1,0.7c0,0.1,0,0.1-0.1,0.2c-0.1,0.1-0.2,0.1-0.3,0.1c-0.1,0-0.2,0-0.3,0l-0.1,0c-0.2,0-0.4,0-0.6,0h-0.2
	c-0.4,0-0.7,0-1,0.2c-0.5,0.2-0.9,0.6-1,1c-0.1,0.2-0.1,0.4-0.1,0.6c0,0.2,0.1,0.4,0.3,0.6c0.3,0.3,0.7,0.5,1.1,0.5
	c0.4,0,0.9-0.1,1.3-0.3c0.8-0.4,1.5-1.1,1.7-1.9c0,0,0,0,0,0c0.3-0.1,0.6-0.2,0.8-0.4c0.2-0.2,0.5-0.4,0.6-0.6
	c0.1-0.1,0.2-0.2,0.3-0.4c0.1-0.1,0.1-0.3,0.2-0.4C23.9,8.4,24,8.3,24,8.2c0-0.1,0-0.2,0-0.3C23.9,7.8,23.9,7.7,23.8,7.7 M10.1,6.1
	c0-0.1,0-0.1,0.1-0.2c0.1-0.2,0.1-0.4,0.3-0.5c0,0,0.1-0.1,0.1-0.1c0.1,0,0.1-0.1,0.2,0c0.1,0,0.2,0.1,0.2,0.2c0,0.2,0,0.4-0.1,0.6
	c-0.1,0.2-0.2,0.3-0.3,0.4c-0.1,0-0.1,0.1-0.2,0.1c0,0-0.1,0-0.1,0h0c-0.1,0-0.1,0-0.1-0.1C10.1,6.3,10.1,6.2,10.1,6.1 M14.4,5.9
	c0,0.1,0,0.1,0,0.2c0,0.3,0,0.5,0,0.8c0,0.2,0,0.3,0,0.4c-0.1,0.3-0.3,0.5-0.6,0.6C13.7,8,13.7,8,13.6,8c0,0,0,0-0.1,0
	c-0.1,0-0.2-0.1-0.3-0.2c0-0.1-0.1-0.2-0.1-0.3c-0.1-0.4-0.1-0.8,0.1-1.1c0.1-0.2,0.2-0.4,0.4-0.6c0.2-0.1,0.4-0.2,0.6-0.2
	c0.1,0,0.1,0,0.2,0.1C14.4,5.7,14.4,5.8,14.4,5.9C14.4,5.9,14.4,5.9,14.4,5.9 M20.9,10.5c0,0-0.1,0.1-0.1,0.1c0,0.1-0.1,0.2-0.2,0.2
	c-0.1,0.1-0.2,0.2-0.3,0.3c-0.2,0.2-0.5,0.3-0.8,0.4c-0.2,0-0.3,0.1-0.5,0.1h0c-0.2,0-0.4-0.1-0.5-0.2c-0.1-0.1-0.1-0.2-0.2-0.2
	c0-0.1,0-0.2,0-0.3c0.1-0.2,0.2-0.3,0.4-0.4c0.3-0.2,0.7-0.2,1-0.2c0.1,0,0.3,0,0.4,0c0.1,0,0.2,0,0.3,0c0.1,0,0.1,0,0.2,0
	C20.7,10.5,20.8,10.5,20.9,10.5C20.9,10.5,20.9,10.5,20.9,10.5"/>
</svg>
