<?xml version="1.0" encoding="utf-8"?>
<!-- Generator: Adobe Illustrator 27.0.1, SVG Export Plug-In . SVG Version: 6.00 Build 0)  -->
<svg version="1.1" id="Layer_1" xmlns="http://www.w3.org/2000/svg" xmlns:xlink="http://www.w3.org/1999/xlink" x="0px" y="0px"
	 viewBox="0 0 126.5 28" style="enable-background:new 0 0 126.5 28;" xml:space="preserve">
<style type="text/css">
	.st0{fill:#0574C2;}
	.st1{fill:none;}
	.st2{fill:#FFFFFF;}
	.st3{font-family:'Verdana-Bold';}
	.st4{font-size:10px;}
	.st5{fill:#1B9BDB;}
	.st6{fill:#3ED6FF;}
</style>
<g shape-rendering="crispEdges">
	<rect y="0" class="st0" width="126.5" height="28"/>
</g>
<g text-rendering="geometricPrecision">
	<rect x="38" y="8.9" class="st1" width="82.5" height="11.7"/>
	<text transform="matrix(1 0 0 1 68.2695 17.4999)" class="st2 st3 st4">SQL</text>
</g>
<g>
	<path class="st5" d="M53,15.3v2.4c0,1.2,2.1,2.3,5.2,2.3s5.2-1,5.2-2.3v-2.4H53z"/>
	<path class="st2" d="M63.5,15.3c0,1.3-2.1,2.4-5.2,2.4S53,16.6,53,15.3c0-1.3,2.1-2.4,5.2-2.4S63.5,13.9,63.5,15.3z"/>
	<path class="st5" d="M53,12.9V15c0,1.2,2.1,2.4,5.2,2.4s5.2-1.1,5.2-2.4v-2.1H53z"/>
	<path class="st2" d="M63.5,12.9c0,1.3-2.1,2.4-5.2,2.4S53,14.2,53,12.9s2.1-2.4,5.2-2.4S63.5,11.6,63.5,12.9z"/>
	<path class="st5" d="M53,10.5v2.1c0,1.2,2.1,2.4,5.2,2.4s5.2-1.1,5.2-2.4v-2.1H53z"/>
	<path class="st6" d="M63.5,10.5c0,1.3-2.1,2.4-5.2,2.4S53,11.8,53,10.5s2.1-2.4,5.2-2.4S63.5,9.2,63.5,10.5L63.5,10.5z"/>
</g>
</svg>
